<?xml version="1.0" encoding="utf-8" standalone="no"?>
<!DOCTYPE svg PUBLIC "-//W3C//DTD SVG 1.1//EN"
  "http://www.w3.org/Graphics/SVG/1.1/DTD/svg11.dtd">
<svg xmlns:xlink="http://www.w3.org/1999/xlink" width="472.310938pt" height="351.466719pt" viewBox="0 0 472.310938 351.466719" xmlns="http://www.w3.org/2000/svg" version="1.1">
 <metadata>
  <rdf:RDF xmlns:dc="http://purl.org/dc/elements/1.1/" xmlns:cc="http://creativecommons.org/ns#" xmlns:rdf="http://www.w3.org/1999/02/22-rdf-syntax-ns#">
   <cc:Work>
    <dc:type rdf:resource="http://purl.org/dc/dcmitype/StillImage"/>
    <dc:date>1970-01-01T00:00:00+00:00</dc:date>
    <dc:format>image/svg+xml</dc:format>
    <dc:creator>
     <cc:Agent>
      <dc:title>Matplotlib v3.10.8, https://matplotlib.org/</dc:title>
     </cc:Agent>
    </dc:creator>
   </cc:Work>
  </rdf:RDF>
 </metadata>
 <defs>
  <style type="text/css">*{stroke-linejoin: round; stroke-linecap: butt}</style>
 </defs>
 <g id="figure_1">
  <g id="patch_1">
   <path d="M 0 351.466719 
L 472.310938 351.466719 
L 472.310938 0 
L 0 0 
z
" style="fill: #ffffff"/>
  </g>
  <g id="axes_1">
   <g id="patch_2">
    <path d="M 42.690938 314.378281 
L 465.110938 314.378281 
L 465.110938 21.558281 
L 42.690938 21.558281 
z
" style="fill: #ffffff"/>
   </g>
   <g id="matplotlib.axis_1">
    <g id="xtick_1">
     <g id="line2d_1">
      <defs>
       <path id="mdd2b1deb13" d="M 0 0 
L 0 4 
" style="stroke: #333333; stroke-width: 0.8"/>
      </defs>
      <g>
       <use xlink:href="#mdd2b1deb13" x="99.30586" y="314.378281" style="fill: #333333; stroke: #333333; stroke-width: 0.8"/>
      </g>
     </g>
     <g id="text_1">
      <text style="font-size: 9px; font-family: 'DejaVu Sans', 'Bitstream Vera Sans', 'Computer Modern Sans Serif', 'Lucida Grande', 'Verdana', 'Geneva', 'Lucid', 'Arial', 'Helvetica', 'Avant Garde', sans-serif; text-anchor: middle" x="99.30586" y="328.716875" transform="rotate(-0 99.30586 328.716875)">-0.4</text>
     </g>
    </g>
    <g id="xtick_2">
     <g id="line2d_2">
      <g>
       <use xlink:href="#mdd2b1deb13" x="176.603399" y="314.378281" style="fill: #333333; stroke: #333333; stroke-width: 0.8"/>
      </g>
     </g>
     <g id="text_2">
      <text style="font-size: 9px; font-family: 'DejaVu Sans', 'Bitstream Vera Sans', 'Computer Modern Sans Serif', 'Lucida Grande', 'Verdana', 'Geneva', 'Lucid', 'Arial', 'Helvetica', 'Avant Garde', sans-serif; text-anchor: middle" x="176.603399" y="328.716875" transform="rotate(-0 176.603399 328.716875)">-0.2</text>
     </g>
    </g>
    <g id="xtick_3">
     <g id="line2d_3">
      <g>
       <use xlink:href="#mdd2b1deb13" x="253.900937" y="314.378281" style="fill: #333333; stroke: #333333; stroke-width: 0.8"/>
      </g>
     </g>
     <g id="text_3">
      <text style="font-size: 9px; font-family: 'DejaVu Sans', 'Bitstream Vera Sans', 'Computer Modern Sans Serif', 'Lucida Grande', 'Verdana', 'Geneva', 'Lucid', 'Arial', 'Helvetica', 'Avant Garde', sans-serif; text-anchor: middle" x="253.900937" y="328.716875" transform="rotate(-0 253.900937 328.716875)">0.0</text>
     </g>
    </g>
    <g id="xtick_4">
     <g id="line2d_4">
      <g>
       <use xlink:href="#mdd2b1deb13" x="331.198476" y="314.378281" style="fill: #333333; stroke: #333333; stroke-width: 0.8"/>
      </g>
     </g>
     <g id="text_4">
      <text style="font-size: 9px; font-family: 'DejaVu Sans', 'Bitstream Vera Sans', 'Computer Modern Sans Serif', 'Lucida Grande', 'Verdana', 'Geneva', 'Lucid', 'Arial', 'Helvetica', 'Avant Garde', sans-serif; text-anchor: middle" x="331.198476" y="328.716875" transform="rotate(-0 331.198476 328.716875)">0.2</text>
     </g>
    </g>
    <g id="xtick_5">
     <g id="line2d_5">
      <g>
       <use xlink:href="#mdd2b1deb13" x="408.496015" y="314.378281" style="fill: #333333; stroke: #333333; stroke-width: 0.8"/>
      </g>
     </g>
     <g id="text_5">
      <text style="font-size: 9px; font-family: 'DejaVu Sans', 'Bitstream Vera Sans', 'Computer Modern Sans Serif', 'Lucida Grande', 'Verdana', 'Geneva', 'Lucid', 'Arial', 'Helvetica', 'Avant Garde', sans-serif; text-anchor: middle" x="408.496015" y="328.716875" transform="rotate(-0 408.496015 328.716875)">0.4</text>
     </g>
    </g>
    <g id="text_6">
     <text style="font-size: 10px; font-family: 'DejaVu Sans', 'Bitstream Vera Sans', 'Computer Modern Sans Serif', 'Lucida Grande', 'Verdana', 'Geneva', 'Lucid', 'Arial', 'Helvetica', 'Avant Garde', sans-serif; text-anchor: middle" x="253.900937" y="342.187031" transform="rotate(-0 253.900937 342.187031)">Residual</text>
    </g>
   </g>
   <g id="matplotlib.axis_2">
    <g id="ytick_1">
     <g id="line2d_6">
      <defs>
       <path id="m1c7873e935" d="M 0 0 
L -4 0 
" style="stroke: #333333; stroke-width: 0.8"/>
      </defs>
      <g>
       <use xlink:href="#m1c7873e935" x="42.690938" y="314.378281" style="fill: #333333; stroke: #333333; stroke-width: 0.8"/>
      </g>
     </g>
     <g id="text_7">
      <text style="font-size: 9px; font-family: 'DejaVu Sans', 'Bitstream Vera Sans', 'Computer Modern Sans Serif', 'Lucida Grande', 'Verdana', 'Geneva', 'Lucid', 'Arial', 'Helvetica', 'Avant Garde', sans-serif; text-anchor: end" x="35.190938" y="317.797578" transform="rotate(-0 35.190938 317.797578)">0.0</text>
     </g>
    </g>
    <g id="ytick_2">
     <g id="line2d_7">
      <g>
       <use xlink:href="#m1c7873e935" x="42.690938" y="270.932061" style="fill: #333333; stroke: #333333; stroke-width: 0.8"/>
      </g>
     </g>
     <g id="text_8">
      <text style="font-size: 9px; font-family: 'DejaVu Sans', 'Bitstream Vera Sans', 'Computer Modern Sans Serif', 'Lucida Grande', 'Verdana', 'Geneva', 'Lucid', 'Arial', 'Helvetica', 'Avant Garde', sans-serif; text-anchor: end" x="35.190938" y="274.351358" transform="rotate(-0 35.190938 274.351358)">0.5</text>
     </g>
    </g>
    <g id="ytick_3">
     <g id="line2d_8">
      <g>
       <use xlink:href="#m1c7873e935" x="42.690938" y="227.485842" style="fill: #333333; stroke: #333333; stroke-width: 0.8"/>
      </g>
     </g>
     <g id="text_9">
      <text style="font-size: 9px; font-family: 'DejaVu Sans', 'Bitstream Vera Sans', 'Computer Modern Sans Serif', 'Lucida Grande', 'Verdana', 'Geneva', 'Lucid', 'Arial', 'Helvetica', 'Avant Garde', sans-serif; text-anchor: end" x="35.190938" y="230.905138" transform="rotate(-0 35.190938 230.905138)">1.0</text>
     </g>
    </g>
    <g id="ytick_4">
     <g id="line2d_9">
      <g>
       <use xlink:href="#m1c7873e935" x="42.690938" y="184.039622" style="fill: #333333; stroke: #333333; stroke-width: 0.8"/>
      </g>
     </g>
     <g id="text_10">
      <text style="font-size: 9px; font-family: 'DejaVu Sans', 'Bitstream Vera Sans', 'Computer Modern Sans Serif', 'Lucida Grande', 'Verdana', 'Geneva', 'Lucid', 'Arial', 'Helvetica', 'Avant Garde', sans-serif; text-anchor: end" x="35.190938" y="187.458919" transform="rotate(-0 35.190938 187.458919)">1.5</text>
     </g>
    </g>
    <g id="ytick_5">
     <g id="line2d_10">
      <g>
       <use xlink:href="#m1c7873e935" x="42.690938" y="140.593402" style="fill: #333333; stroke: #333333; stroke-width: 0.8"/>
      </g>
     </g>
     <g id="text_11">
      <text style="font-size: 9px; font-family: 'DejaVu Sans', 'Bitstream Vera Sans', 'Computer Modern Sans Serif', 'Lucida Grande', 'Verdana', 'Geneva', 'Lucid', 'Arial', 'Helvetica', 'Avant Garde', sans-serif; text-anchor: end" x="35.190938" y="144.012699" transform="rotate(-0 35.190938 144.012699)">2.0</text>
     </g>
    </g>
    <g id="ytick_6">
     <g id="line2d_11">
      <g>
       <use xlink:href="#m1c7873e935" x="42.690938" y="97.147182" style="fill: #333333; stroke: #333333; stroke-width: 0.8"/>
      </g>
     </g>
     <g id="text_12">
      <text style="font-size: 9px; font-family: 'DejaVu Sans', 'Bitstream Vera Sans', 'Computer Modern Sans Serif', 'Lucida Grande', 'Verdana', 'Geneva', 'Lucid', 'Arial', 'Helvetica', 'Avant Garde', sans-serif; text-anchor: end" x="35.190938" y="100.566479" transform="rotate(-0 35.190938 100.566479)">2.5</text>
     </g>
    </g>
    <g id="ytick_7">
     <g id="line2d_12">
      <g>
       <use xlink:href="#m1c7873e935" x="42.690938" y="53.700962" style="fill: #333333; stroke: #333333; stroke-width: 0.8"/>
      </g>
     </g>
     <g id="text_13">
      <text style="font-size: 9px; font-family: 'DejaVu Sans', 'Bitstream Vera Sans', 'Computer Modern Sans Serif', 'Lucida Grande', 'Verdana', 'Geneva', 'Lucid', 'Arial', 'Helvetica', 'Avant Garde', sans-serif; text-anchor: end" x="35.190938" y="57.120259" transform="rotate(-0 35.190938 57.120259)">3.0</text>
     </g>
    </g>
    <g id="text_14">
     <text style="font-size: 10px; font-family: 'DejaVu Sans', 'Bitstream Vera Sans', 'Computer Modern Sans Serif', 'Lucida Grande', 'Verdana', 'Geneva', 'Lucid', 'Arial', 'Helvetica', 'Avant Garde', sans-serif; text-anchor: middle" x="14.798438" y="167.968281" transform="rotate(-90 14.798438 167.968281)">Density</text>
    </g>
   </g>
   <g id="patch_3">
    <path d="M 147.721167 314.378281 
L 172.296116 314.378281 
L 172.296116 246.050859 
L 147.721167 246.050859 
z
" clip-path="url(#pb5d0683bcc)" style="fill: #56b4e9; opacity: 0.8; stroke: #ffffff; stroke-linejoin: miter"/>
   </g>
   <g id="patch_4">
    <path d="M 172.296116 314.378281 
L 196.871065 314.378281 
L 196.871065 191.388921 
L 172.296116 191.388921 
z
" clip-path="url(#pb5d0683bcc)" style="fill: #56b4e9; opacity: 0.8; stroke: #ffffff; stroke-linejoin: miter"/>
   </g>
   <g id="patch_5">
    <path d="M 196.871065 314.378281 
L 221.446014 314.378281 
L 221.446014 82.065045 
L 196.871065 82.065045 
z
" clip-path="url(#pb5d0683bcc)" style="fill: #56b4e9; opacity: 0.8; stroke: #ffffff; stroke-linejoin: miter"/>
   </g>
   <g id="patch_6">
    <path d="M 221.446014 314.378281 
L 246.020963 314.378281 
L 246.020963 164.057952 
L 221.446014 164.057952 
z
" clip-path="url(#pb5d0683bcc)" style="fill: #56b4e9; opacity: 0.8; stroke: #ffffff; stroke-linejoin: miter"/>
   </g>
   <g id="patch_7">
    <path d="M 246.020963 314.378281 
L 270.595913 314.378281 
L 270.595913 68.39956 
L 246.020963 68.39956 
z
" clip-path="url(#pb5d0683bcc)" style="fill: #56b4e9; opacity: 0.8; stroke: #ffffff; stroke-linejoin: miter"/>
   </g>
   <g id="patch_8">
    <path d="M 270.595913 314.378281 
L 295.170862 314.378281 
L 295.170862 123.061498 
L 270.595913 123.061498 
z
" clip-path="url(#pb5d0683bcc)" style="fill: #56b4e9; opacity: 0.8; stroke: #ffffff; stroke-linejoin: miter"/>
   </g>
   <g id="patch_9">
    <path d="M 295.170862 314.378281 
L 319.745811 314.378281 
L 319.745811 68.39956 
L 295.170862 68.39956 
z
" clip-path="url(#pb5d0683bcc)" style="fill: #56b4e9; opacity: 0.8; stroke: #ffffff; stroke-linejoin: miter"/>
   </g>
   <g id="patch_10">
    <path d="M 319.745811 314.378281 
L 344.32076 314.378281 
L 344.32076 205.054405 
L 319.745811 205.054405 
z
" clip-path="url(#pb5d0683bcc)" style="fill: #56b4e9; opacity: 0.8; stroke: #ffffff; stroke-linejoin: miter"/>
   </g>
   <g id="line2d_13">
    <path d="M 61.891847 314.284652 
L 65.770818 314.249346 
L 69.64979 314.201883 
L 73.528761 314.138518 
L 77.407733 314.054513 
L 81.286704 313.94392 
L 85.165676 313.799344 
L 89.044647 313.611668 
L 92.923619 313.369761 
L 96.80259 313.060154 
L 100.681562 312.666713 
L 104.560533 312.170301 
L 108.439505 311.548453 
L 112.318477 310.775075 
L 116.197448 309.820199 
L 120.07642 308.649802 
L 123.955391 307.225736 
L 127.834363 305.505782 
L 131.713334 303.443871 
L 135.592306 300.990492 
L 139.471277 298.09333 
L 143.350249 294.698144 
L 147.22922 290.749905 
L 151.108192 286.194212 
L 154.987163 280.978963 
L 158.866135 275.056282 
L 162.745106 268.384654 
L 166.624078 260.931223 
L 170.50305 252.674179 
L 174.382021 243.605161 
L 178.260993 233.731556 
L 182.139964 223.078612 
L 186.018936 211.691213 
L 189.897907 199.635232 
L 193.776879 186.998324 
L 197.65585 173.890067 
L 201.534822 160.441371 
L 205.413793 146.803092 
L 209.292765 133.143832 
L 213.171736 119.646935 
L 217.050708 106.506728 
L 220.929679 93.924102 
L 224.808651 82.101557 
L 228.687623 71.237881 
L 232.566594 61.522641 
L 236.445566 53.130722 
L 240.324537 46.217094 
L 244.203509 40.912067 
L 248.08248 37.317204 
L 251.961452 35.502091 
L 255.840423 35.502091 
L 259.719395 37.317204 
L 263.598366 40.912067 
L 267.477338 46.217094 
L 271.356309 53.130722 
L 275.235281 61.522641 
L 279.114252 71.237881 
L 282.993224 82.101557 
L 286.872196 93.924102 
L 290.751167 106.506728 
L 294.630139 119.646935 
L 298.50911 133.143832 
L 302.388082 146.803092 
L 306.267053 160.441371 
L 310.146025 173.890067 
L 314.024996 186.998324 
L 317.903968 199.635232 
L 321.782939 211.691213 
L 325.661911 223.078612 
L 329.540882 233.731556 
L 333.419854 243.605161 
L 337.298825 252.674179 
L 341.177797 260.931223 
L 345.056769 268.384654 
L 348.93574 275.056282 
L 352.814712 280.978963 
L 356.693683 286.194212 
L 360.572655 290.749905 
L 364.451626 294.698144 
L 368.330598 298.09333 
L 372.209569 300.990492 
L 376.088541 303.443871 
L 379.967512 305.505782 
L 383.846484 307.225736 
L 387.725455 308.649802 
L 391.604427 309.820199 
L 395.483398 310.775075 
L 399.36237 311.548453 
L 403.241342 312.170301 
L 407.120313 312.666713 
L 410.999285 313.060154 
L 414.878256 313.369761 
L 418.757228 313.611668 
L 422.636199 313.799344 
L 426.515171 313.94392 
L 430.394142 314.054513 
L 434.273114 314.138518 
L 438.152085 314.201883 
L 442.031057 314.249346 
L 445.910028 314.284652 
" clip-path="url(#pb5d0683bcc)" style="fill: none; stroke: #cc0000; stroke-width: 1.5; stroke-linecap: square"/>
   </g>
   <g id="patch_11">
    <path d="M 42.690938 314.378281 
L 42.690938 21.558281 
" style="fill: none; stroke: #000000; stroke-width: 0.8; stroke-linejoin: miter; stroke-linecap: square"/>
   </g>
   <g id="patch_12">
    <path d="M 42.690937 314.378281 
L 465.110937 314.378281 
" style="fill: none; stroke: #000000; stroke-width: 0.8; stroke-linejoin: miter; stroke-linecap: square"/>
   </g>
   <g id="text_15">
    <text style="font-size: 11px; font-family: 'DejaVu Sans', 'Bitstream Vera Sans', 'Computer Modern Sans Serif', 'Lucida Grande', 'Verdana', 'Geneva', 'Lucid', 'Arial', 'Helvetica', 'Avant Garde', sans-serif; text-anchor: middle" x="253.900937" y="15.558281" transform="rotate(-0 253.900937 15.558281)">Histogram of Residuals</text>
   </g>
  </g>
 </g>
 <defs>
  <clipPath id="pb5d0683bcc">
   <rect x="42.690938" y="21.558281" width="422.42" height="292.82"/>
  </clipPath>
 </defs>
</svg>
