<?xml version="1.0" encoding="utf-8" standalone="no"?>
<!DOCTYPE svg PUBLIC "-//W3C//DTD SVG 1.1//EN"
  "http://www.w3.org/Graphics/SVG/1.1/DTD/svg11.dtd">
<svg xmlns:xlink="http://www.w3.org/1999/xlink" width="472.310938pt" height="351.466719pt" viewBox="0 0 472.310938 351.466719" xmlns="http://www.w3.org/2000/svg" version="1.1">
 <metadata>
  <rdf:RDF xmlns:dc="http://purl.org/dc/elements/1.1/" xmlns:cc="http://creativecommons.org/ns#" xmlns:rdf="http://www.w3.org/1999/02/22-rdf-syntax-ns#">
   <cc:Work>
    <dc:type rdf:resource="http://purl.org/dc/dcmitype/StillImage"/>
    <dc:date>1970-01-01T00:00:00+00:00</dc:date>
    <dc:format>image/svg+xml</dc:format>
    <dc:creator>
     <cc:Agent>
      <dc:title>Matplotlib v3.10.8, https://matplotlib.org/</dc:title>
     </cc:Agent>
    </dc:creator>
   </cc:Work>
  </rdf:RDF>
 </metadata>
 <defs>
  <style type="text/css">*{stroke-linejoin: round; stroke-linecap: butt}</style>
 </defs>
 <g id="figure_1">
  <g id="patch_1">
   <path d="M 0 351.466719 
L 472.310938 351.466719 
L 472.310938 0 
L 0 0 
z
" style="fill: #ffffff"/>
  </g>
  <g id="axes_1">
   <g id="patch_2">
    <path d="M 42.690938 314.378281 
L 465.110938 314.378281 
L 465.110938 21.558281 
L 42.690938 21.558281 
z
" style="fill: #ffffff"/>
   </g>
   <g id="matplotlib.axis_1">
    <g id="xtick_1">
     <g id="line2d_1">
      <defs>
       <path id="mdd2b1deb13" d="M 0 0 
L 0 4 
" style="stroke: #333333; stroke-width: 0.8"/>
      </defs>
      <g>
       <use xlink:href="#mdd2b1deb13" x="106.570159" y="314.378281" style="fill: #333333; stroke: #333333; stroke-width: 0.8"/>
      </g>
     </g>
     <g id="text_1">
      <text style="font-size: 9px; font-family: 'DejaVu Sans', 'Bitstream Vera Sans', 'Computer Modern Sans Serif', 'Lucida Grande', 'Verdana', 'Geneva', 'Lucid', 'Arial', 'Helvetica', 'Avant Garde', sans-serif; text-anchor: middle" x="106.570159" y="328.716875" transform="rotate(-0 106.570159 328.716875)">-0.4</text>
     </g>
    </g>
    <g id="xtick_2">
     <g id="line2d_2">
      <g>
       <use xlink:href="#mdd2b1deb13" x="180.235548" y="314.378281" style="fill: #333333; stroke: #333333; stroke-width: 0.8"/>
      </g>
     </g>
     <g id="text_2">
      <text style="font-size: 9px; font-family: 'DejaVu Sans', 'Bitstream Vera Sans', 'Computer Modern Sans Serif', 'Lucida Grande', 'Verdana', 'Geneva', 'Lucid', 'Arial', 'Helvetica', 'Avant Garde', sans-serif; text-anchor: middle" x="180.235548" y="328.716875" transform="rotate(-0 180.235548 328.716875)">-0.2</text>
     </g>
    </g>
    <g id="xtick_3">
     <g id="line2d_3">
      <g>
       <use xlink:href="#mdd2b1deb13" x="253.900937" y="314.378281" style="fill: #333333; stroke: #333333; stroke-width: 0.8"/>
      </g>
     </g>
     <g id="text_3">
      <text style="font-size: 9px; font-family: 'DejaVu Sans', 'Bitstream Vera Sans', 'Computer Modern Sans Serif', 'Lucida Grande', 'Verdana', 'Geneva', 'Lucid', 'Arial', 'Helvetica', 'Avant Garde', sans-serif; text-anchor: middle" x="253.900937" y="328.716875" transform="rotate(-0 253.900937 328.716875)">0.0</text>
     </g>
    </g>
    <g id="xtick_4">
     <g id="line2d_4">
      <g>
       <use xlink:href="#mdd2b1deb13" x="327.566327" y="314.378281" style="fill: #333333; stroke: #333333; stroke-width: 0.8"/>
      </g>
     </g>
     <g id="text_4">
      <text style="font-size: 9px; font-family: 'DejaVu Sans', 'Bitstream Vera Sans', 'Computer Modern Sans Serif', 'Lucida Grande', 'Verdana', 'Geneva', 'Lucid', 'Arial', 'Helvetica', 'Avant Garde', sans-serif; text-anchor: middle" x="327.566327" y="328.716875" transform="rotate(-0 327.566327 328.716875)">0.2</text>
     </g>
    </g>
    <g id="xtick_5">
     <g id="line2d_5">
      <g>
       <use xlink:href="#mdd2b1deb13" x="401.231716" y="314.378281" style="fill: #333333; stroke: #333333; stroke-width: 0.8"/>
      </g>
     </g>
     <g id="text_5">
      <text style="font-size: 9px; font-family: 'DejaVu Sans', 'Bitstream Vera Sans', 'Computer Modern Sans Serif', 'Lucida Grande', 'Verdana', 'Geneva', 'Lucid', 'Arial', 'Helvetica', 'Avant Garde', sans-serif; text-anchor: middle" x="401.231716" y="328.716875" transform="rotate(-0 401.231716 328.716875)">0.4</text>
     </g>
    </g>
    <g id="text_6">
     <text style="font-size: 10px; font-family: 'DejaVu Sans', 'Bitstream Vera Sans', 'Computer Modern Sans Serif', 'Lucida Grande', 'Verdana', 'Geneva', 'Lucid', 'Arial', 'Helvetica', 'Avant Garde', sans-serif; text-anchor: middle" x="253.900937" y="342.187031" transform="rotate(-0 253.900937 342.187031)">Residual</text>
    </g>
   </g>
   <g id="matplotlib.axis_2">
    <g id="ytick_1">
     <g id="line2d_6">
      <defs>
       <path id="m1c7873e935" d="M 0 0 
L -4 0 
" style="stroke: #333333; stroke-width: 0.8"/>
      </defs>
      <g>
       <use xlink:href="#m1c7873e935" x="42.690938" y="314.378281" style="fill: #333333; stroke: #333333; stroke-width: 0.8"/>
      </g>
     </g>
     <g id="text_7">
      <text style="font-size: 9px; font-family: 'DejaVu Sans', 'Bitstream Vera Sans', 'Computer Modern Sans Serif', 'Lucida Grande', 'Verdana', 'Geneva', 'Lucid', 'Arial', 'Helvetica', 'Avant Garde', sans-serif; text-anchor: end" x="35.190938" y="317.797578" transform="rotate(-0 35.190938 317.797578)">0.0</text>
     </g>
    </g>
    <g id="ytick_2">
     <g id="line2d_7">
      <g>
       <use xlink:href="#m1c7873e935" x="42.690938" y="272.294346" style="fill: #333333; stroke: #333333; stroke-width: 0.8"/>
      </g>
     </g>
     <g id="text_8">
      <text style="font-size: 9px; font-family: 'DejaVu Sans', 'Bitstream Vera Sans', 'Computer Modern Sans Serif', 'Lucida Grande', 'Verdana', 'Geneva', 'Lucid', 'Arial', 'Helvetica', 'Avant Garde', sans-serif; text-anchor: end" x="35.190938" y="275.713643" transform="rotate(-0 35.190938 275.713643)">0.5</text>
     </g>
    </g>
    <g id="ytick_3">
     <g id="line2d_8">
      <g>
       <use xlink:href="#m1c7873e935" x="42.690938" y="230.210412" style="fill: #333333; stroke: #333333; stroke-width: 0.8"/>
      </g>
     </g>
     <g id="text_9">
      <text style="font-size: 9px; font-family: 'DejaVu Sans', 'Bitstream Vera Sans', 'Computer Modern Sans Serif', 'Lucida Grande', 'Verdana', 'Geneva', 'Lucid', 'Arial', 'Helvetica', 'Avant Garde', sans-serif; text-anchor: end" x="35.190938" y="233.629708" transform="rotate(-0 35.190938 233.629708)">1.0</text>
     </g>
    </g>
    <g id="ytick_4">
     <g id="line2d_9">
      <g>
       <use xlink:href="#m1c7873e935" x="42.690938" y="188.126477" style="fill: #333333; stroke: #333333; stroke-width: 0.8"/>
      </g>
     </g>
     <g id="text_10">
      <text style="font-size: 9px; font-family: 'DejaVu Sans', 'Bitstream Vera Sans', 'Computer Modern Sans Serif', 'Lucida Grande', 'Verdana', 'Geneva', 'Lucid', 'Arial', 'Helvetica', 'Avant Garde', sans-serif; text-anchor: end" x="35.190938" y="191.545774" transform="rotate(-0 35.190938 191.545774)">1.5</text>
     </g>
    </g>
    <g id="ytick_5">
     <g id="line2d_10">
      <g>
       <use xlink:href="#m1c7873e935" x="42.690938" y="146.042542" style="fill: #333333; stroke: #333333; stroke-width: 0.8"/>
      </g>
     </g>
     <g id="text_11">
      <text style="font-size: 9px; font-family: 'DejaVu Sans', 'Bitstream Vera Sans', 'Computer Modern Sans Serif', 'Lucida Grande', 'Verdana', 'Geneva', 'Lucid', 'Arial', 'Helvetica', 'Avant Garde', sans-serif; text-anchor: end" x="35.190938" y="149.461839" transform="rotate(-0 35.190938 149.461839)">2.0</text>
     </g>
    </g>
    <g id="ytick_6">
     <g id="line2d_11">
      <g>
       <use xlink:href="#m1c7873e935" x="42.690938" y="103.958607" style="fill: #333333; stroke: #333333; stroke-width: 0.8"/>
      </g>
     </g>
     <g id="text_12">
      <text style="font-size: 9px; font-family: 'DejaVu Sans', 'Bitstream Vera Sans', 'Computer Modern Sans Serif', 'Lucida Grande', 'Verdana', 'Geneva', 'Lucid', 'Arial', 'Helvetica', 'Avant Garde', sans-serif; text-anchor: end" x="35.190938" y="107.377904" transform="rotate(-0 35.190938 107.377904)">2.5</text>
     </g>
    </g>
    <g id="ytick_7">
     <g id="line2d_12">
      <g>
       <use xlink:href="#m1c7873e935" x="42.690938" y="61.874672" style="fill: #333333; stroke: #333333; stroke-width: 0.8"/>
      </g>
     </g>
     <g id="text_13">
      <text style="font-size: 9px; font-family: 'DejaVu Sans', 'Bitstream Vera Sans', 'Computer Modern Sans Serif', 'Lucida Grande', 'Verdana', 'Geneva', 'Lucid', 'Arial', 'Helvetica', 'Avant Garde', sans-serif; text-anchor: end" x="35.190938" y="65.293969" transform="rotate(-0 35.190938 65.293969)">3.0</text>
     </g>
    </g>
    <g id="text_14">
     <text style="font-size: 10px; font-family: 'DejaVu Sans', 'Bitstream Vera Sans', 'Computer Modern Sans Serif', 'Lucida Grande', 'Verdana', 'Geneva', 'Lucid', 'Arial', 'Helvetica', 'Avant Garde', sans-serif; text-anchor: middle" x="14.798438" y="167.968281" transform="rotate(-90 14.798438 167.968281)">Density</text>
    </g>
   </g>
   <g id="patch_3">
    <path d="M 136.775263 314.378281 
L 163.454883 314.378281 
L 163.454883 291.138599 
L 136.775263 291.138599 
z
" clip-path="url(#pb5d0683bcc)" style="fill: #56b4e9; opacity: 0.8; stroke: #ffffff; stroke-linejoin: miter"/>
   </g>
   <g id="patch_4">
    <path d="M 163.454883 314.378281 
L 190.134502 314.378281 
L 190.134502 198.179869 
L 163.454883 198.179869 
z
" clip-path="url(#pb5d0683bcc)" style="fill: #56b4e9; opacity: 0.8; stroke: #ffffff; stroke-linejoin: miter"/>
   </g>
   <g id="patch_5">
    <path d="M 190.134502 314.378281 
L 216.814122 314.378281 
L 216.814122 186.560027 
L 190.134502 186.560027 
z
" clip-path="url(#pb5d0683bcc)" style="fill: #56b4e9; opacity: 0.8; stroke: #ffffff; stroke-linejoin: miter"/>
   </g>
   <g id="patch_6">
    <path d="M 216.814122 314.378281 
L 243.493741 314.378281 
L 243.493741 128.460821 
L 216.814122 128.460821 
z
" clip-path="url(#pb5d0683bcc)" style="fill: #56b4e9; opacity: 0.8; stroke: #ffffff; stroke-linejoin: miter"/>
   </g>
   <g id="patch_7">
    <path d="M 243.493741 314.378281 
L 270.173361 314.378281 
L 270.173361 35.502091 
L 243.493741 35.502091 
z
" clip-path="url(#pb5d0683bcc)" style="fill: #56b4e9; opacity: 0.8; stroke: #ffffff; stroke-linejoin: miter"/>
   </g>
   <g id="patch_8">
    <path d="M 270.173361 314.378281 
L 296.85298 314.378281 
L 296.85298 116.84098 
L 270.173361 116.84098 
z
" clip-path="url(#pb5d0683bcc)" style="fill: #56b4e9; opacity: 0.8; stroke: #ffffff; stroke-linejoin: miter"/>
   </g>
   <g id="patch_9">
    <path d="M 296.85298 314.378281 
L 323.5326 314.378281 
L 323.5326 174.940186 
L 296.85298 174.940186 
z
" clip-path="url(#pb5d0683bcc)" style="fill: #56b4e9; opacity: 0.8; stroke: #ffffff; stroke-linejoin: miter"/>
   </g>
   <g id="patch_10">
    <path d="M 323.5326 314.378281 
L 350.212219 314.378281 
L 350.212219 221.419551 
L 323.5326 221.419551 
z
" clip-path="url(#pb5d0683bcc)" style="fill: #56b4e9; opacity: 0.8; stroke: #ffffff; stroke-linejoin: miter"/>
   </g>
   <g id="line2d_13">
    <path d="M 61.891847 314.29185 
L 65.770818 314.259258 
L 69.64979 314.215443 
L 73.528761 314.156949 
L 77.407733 314.079401 
L 81.286704 313.97731 
L 85.165676 313.843848 
L 89.044647 313.670599 
L 92.923619 313.447287 
L 96.80259 313.16148 
L 100.681562 312.798284 
L 104.560533 312.340032 
L 108.439505 311.765986 
L 112.318477 311.052059 
L 116.197448 310.170586 
L 120.07642 309.090159 
L 123.955391 307.775563 
L 127.834363 306.187825 
L 131.713334 304.284415 
L 135.592306 302.019631 
L 139.471277 299.345178 
L 143.350249 296.210985 
L 147.22922 292.566254 
L 151.108192 288.360763 
L 154.987163 283.546418 
L 158.866135 278.079022 
L 162.745106 271.920253 
L 166.624078 265.039778 
L 170.50305 257.417465 
L 174.382021 249.045596 
L 178.260993 239.93099 
L 182.139964 230.096953 
L 186.018936 219.58492 
L 189.897907 208.455701 
L 193.776879 196.790211 
L 197.65585 184.689605 
L 201.534822 172.27473 
L 205.413793 159.684846 
L 209.292765 147.075594 
L 213.171736 134.616223 
L 217.050708 122.486124 
L 220.929679 110.870743 
L 224.808651 99.957015 
L 228.687623 89.928445 
L 232.566594 80.96003 
L 236.445566 73.21321 
L 240.324537 66.831043 
L 244.203509 61.933821 
L 248.08248 58.615301 
L 251.961452 56.939718 
L 255.840423 56.939718 
L 259.719395 58.615301 
L 263.598366 61.933821 
L 267.477338 66.831043 
L 271.356309 73.21321 
L 275.235281 80.96003 
L 279.114252 89.928445 
L 282.993224 99.957015 
L 286.872196 110.870743 
L 290.751167 122.486124 
L 294.630139 134.616223 
L 298.50911 147.075594 
L 302.388082 159.684846 
L 306.267053 172.27473 
L 310.146025 184.689605 
L 314.024996 196.790211 
L 317.903968 208.455701 
L 321.782939 219.58492 
L 325.661911 230.096953 
L 329.540882 239.93099 
L 333.419854 249.045596 
L 337.298825 257.417465 
L 341.177797 265.039778 
L 345.056769 271.920253 
L 348.93574 278.079022 
L 352.814712 283.546418 
L 356.693683 288.360763 
L 360.572655 292.566254 
L 364.451626 296.210985 
L 368.330598 299.345178 
L 372.209569 302.019631 
L 376.088541 304.284415 
L 379.967512 306.187825 
L 383.846484 307.775563 
L 387.725455 309.090159 
L 391.604427 310.170586 
L 395.483398 311.052059 
L 399.36237 311.765986 
L 403.241342 312.340032 
L 407.120313 312.798284 
L 410.999285 313.16148 
L 414.878256 313.447287 
L 418.757228 313.670599 
L 422.636199 313.843848 
L 426.515171 313.97731 
L 430.394142 314.079401 
L 434.273114 314.156949 
L 438.152085 314.215443 
L 442.031057 314.259258 
L 445.910028 314.29185 
" clip-path="url(#pb5d0683bcc)" style="fill: none; stroke: #cc0000; stroke-width: 1.5; stroke-linecap: square"/>
   </g>
   <g id="patch_11">
    <path d="M 42.690938 314.378281 
L 42.690938 21.558281 
" style="fill: none; stroke: #000000; stroke-width: 0.8; stroke-linejoin: miter; stroke-linecap: square"/>
   </g>
   <g id="patch_12">
    <path d="M 42.690937 314.378281 
L 465.110937 314.378281 
" style="fill: none; stroke: #000000; stroke-width: 0.8; stroke-linejoin: miter; stroke-linecap: square"/>
   </g>
   <g id="text_15">
    <text style="font-size: 11px; font-family: 'DejaVu Sans', 'Bitstream Vera Sans', 'Computer Modern Sans Serif', 'Lucida Grande', 'Verdana', 'Geneva', 'Lucid', 'Arial', 'Helvetica', 'Avant Garde', sans-serif; text-anchor: middle" x="253.900937" y="15.558281" transform="rotate(-0 253.900937 15.558281)">Histogram of Residuals</text>
   </g>
  </g>
 </g>
 <defs>
  <clipPath id="pb5d0683bcc">
   <rect x="42.690938" y="21.558281" width="422.42" height="292.82"/>
  </clipPath>
 </defs>
</svg>
